<svg width="104" height="141" viewBox="0 0 104 141" fill="none" xmlns="http://www.w3.org/2000/svg">
<path d="M12.1335 118.784C13.9129 113.66 16.7 109.291 19.8154 105.06C24.8886 98.1743 31.8621 94.3689 39.9297 92.331C41.4442 91.951 43.1487 92.1065 44.7323 92.2849C45.6133 92.3885 46.4311 93.0506 47.721 93.6839C45.6076 94.9677 44.0413 96.096 42.331 96.925C35.9737 100.011 30.9638 104.541 26.6967 110.166C23.138 114.852 19.5102 119.406 17.7481 125.14C17.3104 126.568 16.199 126.93 14.6903 126.999C10.1238 127.201 7.4922 124.53 5.18305 121.15C0.13286 113.747 -1.08218 105.693 0.910255 97.0401C2.88541 88.4623 7.2561 81.1625 12.957 74.6053C18.6694 68.0309 25.1247 62.2164 31.8794 56.7588C42.2101 48.4113 52.6675 40.2249 63.0328 31.9176C71.6935 24.9805 79.4041 17.1453 85.4217 7.74998C86.5216 6.03442 87.5466 4.33035 87.3393 2.0909C87.2817 1.44612 88.0879 0.346552 88.7329 0.116274C89.4642 -0.142788 90.8865 0.0414508 91.2608 0.565332C92.1246 1.78005 93.0172 3.31714 93.0287 4.72759C93.046 6.92098 92.6717 9.24105 91.8885 11.2905C89.1532 18.4406 85.1568 24.7675 79.6345 30.2193C71.348 38.3942 62.1229 45.4464 53.2146 52.8787C45.5097 59.3149 37.6666 65.5842 30.0597 72.1356C24.0363 77.3226 19.0725 83.4653 15.1337 90.3966C10.8955 97.8576 9.50191 105.843 10.8148 114.305C10.9646 115.284 11.2525 116.24 11.5174 117.195C11.6844 117.736 11.932 118.254 12.1335 118.784Z" fill="#C9FF56"/>
<path d="M78.4311 122.031C79.1222 122.031 79.9456 121.795 80.4754 122.083C81.4371 122.607 81.9841 123.43 81.7077 124.76C80.0781 132.71 71.6015 140.24 63.4647 140.597C56.8367 140.891 52.0917 137.569 48.8439 132.037C46.2065 127.546 45.2909 122.538 45.4521 117.403C45.717 109.009 48.556 101.45 53.5025 94.7087C55.8635 91.4906 58.9789 89.2626 63.0501 88.6581C65.8776 88.2436 67.1675 89.2166 68.9757 91.41C70.7147 93.517 70.8184 95.8428 71.1178 98.2608C72.0334 105.641 73.2312 112.958 76.5539 119.728C77.0088 120.655 77.5904 121.519 78.1144 122.411C78.2296 122.284 78.3332 122.158 78.4311 122.031ZM74.6075 127.178C74.6075 127.034 74.6075 126.896 74.6075 126.752C69.2924 124.967 66.9774 120.707 65.7739 115.773C64.9504 112.394 64.4667 108.894 64.1788 105.422C63.9139 102.239 64.1212 99.0149 64.1212 95.8083C63.8794 95.7047 63.6375 95.601 63.3956 95.4974C62.1 96.9366 60.6488 98.2665 59.549 99.8439C57.7178 102.463 57.0037 105.538 56.5085 108.658C55.5756 114.564 56.4106 120.235 58.9328 125.629C60.8216 129.676 63.9888 131.052 68.227 129.705C70.4038 129.014 72.4883 128.03 74.6075 127.178Z" fill="#C9FF56"/>
<path d="M89.188 67.1272C89.2283 74.5537 88.0708 81.7268 84.6099 88.3818C83.9707 89.6138 83.1358 90.7998 82.1856 91.8072C81.2642 92.7802 79.9974 93.2925 78.6096 92.7053C77.2218 92.1181 76.7438 90.8516 76.738 89.5102C76.738 88.1688 76.9626 86.8102 77.2102 85.4804C78.4195 78.8541 79.8361 72.2566 80.8439 65.6016C81.5407 60.9788 81.0281 56.3156 80.0895 51.7216C79.8995 50.8005 79.7094 49.8678 79.6576 48.9352C79.5885 47.6514 80.0204 46.5346 81.2988 45.9934C82.6405 45.4292 83.8441 45.861 84.656 46.9433C85.3989 47.9335 86.015 49.0561 86.4815 50.2075C88.71 55.6248 89.1592 61.3472 89.188 67.1272Z" fill="#C9FF56"/>
<path d="M51.2164 83.7704C48.8611 83.4423 46.7132 83.2868 44.6402 82.809C41.9682 82.193 39.6994 80.8171 38.2943 78.3359C37.1196 76.2634 37.3499 74.0584 38.8126 72.7171C40.1888 71.4563 42.1755 71.3585 44.1449 72.7804C48.0837 75.6301 52.6099 77.0348 57.1937 78.3013C58.069 78.5431 59.0421 78.4337 59.9693 78.5143C60.3551 78.5489 60.7351 78.6467 61.121 78.7101C61.0173 79.1303 61.0115 79.6139 60.7927 79.9651C59.6871 81.7728 57.9538 82.7342 55.9671 83.1659C54.349 83.5171 52.6733 83.5919 51.2164 83.7704Z" fill="#C9FF56"/>
<path d="M97.9926 92.2906C95.0271 92.3309 92.5855 90.0512 92.3897 87.3166C92.1939 84.6569 96.2881 80.7249 98.4072 80.7479C101.258 80.7824 103.947 83.2062 103.999 86.0271C104.068 89.51 101.442 92.2446 97.9926 92.2906Z" fill="#C9FF56"/>
<path d="M64.2537 73.7186C59.8829 73.5804 54.896 68.6869 54.7175 64.4613C54.6369 62.6364 55.4719 61.2489 56.9576 60.7365C58.4894 60.2069 60.24 60.7596 61.0807 62.4176C62.745 65.7106 64.2998 69.0612 65.7221 72.4635C66.3441 73.9661 64.9447 73.6322 64.2537 73.7186Z" fill="#C9FF56"/>
<path d="M82.9918 116.787C81.0743 116.787 79.7268 115.457 79.721 113.569C79.7153 111.703 81.1261 110.241 82.9343 110.253C84.8058 110.264 86.4757 111.916 86.4585 113.735C86.4412 115.503 84.9843 116.787 82.9918 116.787Z" fill="#C9FF56"/>
<path d="M71.1811 64.6514C72.4883 64.6917 73.4097 65.6819 73.2887 66.8333C73.162 68.048 72.4307 68.7043 71.2099 68.7101C70.0466 68.7158 69.131 67.7083 69.252 66.5512C69.3844 65.3307 70.1388 64.7377 71.1811 64.6514Z" fill="#C9FF56"/>
</svg>
