<svg xmlns="http://www.w3.org/2000/svg" xmlns:xlink="http://www.w3.org/1999/xlink" width="500" zoomAndPan="magnify" viewBox="0 0 375 374.999991" height="500" preserveAspectRatio="xMidYMid meet" version="1.0"><defs><g/></defs><g fill="#fff559" fill-opacity="1"><g transform="translate(25.735777, 193.244267)"><g><path d="M 31.550781 -49.253906 L 23.605469 -27.085938 L 11.800781 -60.074219 C 11.726562 -60.375 11.425781 -60.527344 11.046875 -60.527344 L 0.757812 -60.527344 C 0.152344 -60.527344 -0.152344 -60.074219 0.0742188 -59.617188 L 22.847656 -0.378906 C 23.152344 0.152344 24.058594 0.152344 24.285156 -0.378906 L 43.199219 -49.253906 Z M 31.550781 -49.253906 "/></g></g></g><g fill="#fff559" fill-opacity="1"><g transform="translate(71.122816, 193.244267)"><g><path d="M 34.574219 -11.121094 C 27.238281 -10.820312 11.652344 -11.574219 11.652344 -30.261719 C 11.652344 -44.636719 21.410156 -50.160156 34.574219 -49.480469 L 34.574219 -36.089844 L 46.152344 -36.089844 L 46.152344 -59.847656 C 46.152344 -60.148438 45.847656 -60.527344 45.320312 -60.527344 L 35.484375 -60.527344 C 20.65625 -60.527344 0 -57.121094 0 -30.261719 C 0 -4.386719 20.429688 0 35.484375 0 L 45.320312 0 C 45.847656 0 46.152344 -0.378906 46.152344 -0.679688 L 46.152344 -11.121094 Z M 34.574219 -11.121094 "/></g></g></g><g fill="#fff559" fill-opacity="1"><g transform="translate(118.529785, 192.265864)"><g><path d="M 52.789062 -14.230469 L 63.996094 -14.230469 L 63.996094 -58.320312 C 63.996094 -58.613281 63.699219 -58.980469 63.183594 -58.980469 L 53.453125 -58.980469 C 53.15625 -58.980469 52.789062 -58.761719 52.640625 -58.539062 L 32.515625 -15.335938 L 11.355469 -58.539062 C 11.28125 -58.761719 10.839844 -58.980469 10.617188 -58.980469 L 0.738281 -58.980469 C 0.222656 -58.980469 0 -58.613281 0 -58.320312 L 0 -0.664062 C 0 -0.367188 0.222656 0 0.738281 0 L 10.46875 0 C 10.910156 0 11.28125 -0.367188 11.28125 -0.664062 L 11.28125 -33.765625 L 27.277344 -2.800781 C 27.351562 -2.582031 27.796875 -2.359375 28.015625 -2.359375 L 37.085938 -2.359375 C 37.304688 -2.359375 37.675781 -2.582031 37.75 -2.800781 L 52.789062 -32.957031 Z M 52.789062 -14.230469 "/></g></g></g><g fill="#fff559" fill-opacity="1"><g transform="translate(185.7641, 192.265864)"><g><path d="M 28.015625 -10.984375 L 11.28125 -10.984375 L 11.28125 -24.257812 L 34.429688 -24.257812 C 34.875 -24.257812 35.242188 -24.625 35.242188 -24.917969 L 35.242188 -34.285156 C 35.242188 -34.652344 34.875 -34.945312 34.429688 -34.945312 L 11.28125 -34.945312 L 11.28125 -48.292969 L 28.015625 -48.292969 L 28.015625 -58.980469 L 0.8125 -58.980469 C 0.367188 -58.980469 0 -58.613281 0 -58.320312 L 0 -0.664062 C 0 -0.367188 0.367188 0 0.8125 0 L 28.015625 0 Z M 28.015625 -10.984375 "/></g></g></g><g fill="#fff559" fill-opacity="1"><g transform="translate(222.772469, 192.265864)"><g><path d="M 10.46875 -58.980469 L 0.8125 -58.980469 C 0.367188 -58.980469 0 -58.613281 0 -58.320312 L 0 -35.167969 L 11.28125 -35.167969 L 11.28125 -48.21875 C 24.109375 -48.882812 33.621094 -43.5 33.621094 -29.492188 C 33.621094 -11.28125 18.433594 -10.542969 11.28125 -10.839844 L 11.28125 -23.8125 L 0 -23.8125 L 0 -0.664062 C 0 -0.367188 0.367188 0 0.8125 0 L 10.46875 0 C 25.140625 0 44.972656 -4.277344 44.972656 -29.492188 C 44.972656 -55.664062 24.847656 -58.980469 10.46875 -58.980469 Z M 10.46875 -58.980469 "/></g></g></g><g fill="#fff559" fill-opacity="1"><g transform="translate(270.028164, 192.265864)"><g><path d="M 24.035156 -10.101562 L 18.136719 -10.101562 L 18.136719 -58.980469 L 6.855469 -58.980469 L 6.855469 -10.101562 L 0.8125 -10.101562 C 0.367188 -10.101562 0 -9.804688 0 -9.4375 L 0 -0.664062 C 0 -0.367188 0.367188 0 0.8125 0 L 24.035156 0 C 24.550781 0 24.847656 -0.367188 24.847656 -0.664062 L 24.847656 -9.4375 C 24.847656 -9.804688 24.550781 -10.101562 24.035156 -10.101562 Z M 24.035156 -10.101562 "/></g></g></g><g fill="#fff559" fill-opacity="1"><g transform="translate(296.125694, 192.265864)"><g><path d="M 46.300781 -0.882812 L 23.886719 -58.539062 C 23.667969 -59.128906 22.632812 -59.128906 22.414062 -58.539062 L 0.0742188 -0.882812 C -0.148438 -0.441406 0.148438 0 0.8125 0 L 10.910156 0 C 11.207031 0 11.574219 -0.148438 11.648438 -0.441406 L 23.152344 -33.324219 L 34.800781 -0.441406 C 34.875 -0.148438 35.242188 0 35.464844 0 L 45.636719 0 C 46.152344 0 46.523438 -0.441406 46.300781 -0.882812 Z M 46.300781 -0.882812 "/></g></g></g><g fill="#ffffff" fill-opacity="1"><g transform="translate(73.757464, 218.918272)"><g><path d="M 12.5 -13.296875 L 12.5 0 L 10.1875 0 L 10.1875 -5.609375 L 10.265625 -7.8125 L 9.59375 -6.8125 L 7.03125 -3.78125 L 4.46875 -6.8125 L 3.796875 -7.8125 L 3.90625 -5.609375 L 3.90625 0 L 1.578125 0 L 1.578125 -13.296875 L 1.765625 -13.296875 L 7.046875 -7.0625 L 12.296875 -13.296875 Z M 12.5 -13.296875 "/></g></g></g><g fill="#ffffff" fill-opacity="1"><g transform="translate(92.151771, 218.918272)"><g><path d="M 7.671875 -1.890625 L 3 -1.890625 L 2.3125 0 L -0.3125 0 L 5.21875 -13.296875 L 5.40625 -13.296875 L 10.953125 0 L 8.40625 0 Z M 6.96875 -3.71875 L 5.609375 -7.28125 L 5.28125 -8.328125 L 4.984375 -7.28125 L 3.671875 -3.71875 Z M 6.96875 -3.71875 "/></g></g></g><g fill="#ffffff" fill-opacity="1"><g transform="translate(107.096175, 218.918272)"><g><path d="M 7.3125 0 L 3.953125 -4.71875 L 3.953125 0 L 1.578125 0 L 1.578125 -13.0625 L 5.21875 -13.0625 C 8.3125 -13.0625 9.859375 -11.675781 9.859375 -8.90625 C 9.859375 -8.289062 9.757812 -7.679688 9.5625 -7.078125 C 9.363281 -6.484375 9.035156 -5.953125 8.578125 -5.484375 C 8.128906 -5.023438 7.550781 -4.707031 6.84375 -4.53125 L 10.21875 0 Z M 4.953125 -5.90625 C 5.484375 -5.90625 5.9375 -6.03125 6.3125 -6.28125 C 6.6875 -6.539062 6.972656 -6.878906 7.171875 -7.296875 C 7.367188 -7.722656 7.46875 -8.1875 7.46875 -8.6875 C 7.46875 -9.539062 7.265625 -10.171875 6.859375 -10.578125 C 6.460938 -10.984375 5.804688 -11.1875 4.890625 -11.1875 L 3.953125 -11.1875 L 3.953125 -5.90625 Z M 4.953125 -5.90625 "/></g></g></g><g fill="#ffffff" fill-opacity="1"><g transform="translate(122.228079, 218.918272)"><g><path d="M 8.171875 0 L 3.953125 -6.265625 L 3.953125 0 L 1.578125 0 L 1.578125 -13.0625 L 3.953125 -13.0625 L 3.953125 -6.5625 L 8.125 -13.0625 L 10.875 -13.0625 L 6.421875 -6.578125 L 11.171875 0 Z M 8.171875 0 "/></g></g></g><g fill="#ffffff" fill-opacity="1"><g transform="translate(137.716221, 218.918272)"><g><path d="M 8.71875 -2.125 L 8.71875 0 L 1.515625 0 L 1.515625 -13.0625 L 8.34375 -13.0625 L 8.34375 -11.03125 L 3.859375 -11.03125 L 3.859375 -7.96875 L 7.421875 -7.96875 L 7.421875 -5.984375 L 3.859375 -5.984375 L 3.859375 -2.125 Z M 8.71875 -2.125 "/></g></g></g><g fill="#ffffff" fill-opacity="1"><g transform="translate(151.51692, 218.918272)"><g><path d="M 8.796875 -10.953125 L 5.78125 -10.953125 L 5.78125 0 L 3.359375 0 L 3.359375 -10.953125 L 0.34375 -10.953125 L 0.34375 -13.0625 L 8.796875 -13.0625 Z M 8.796875 -10.953125 "/></g></g></g><g fill="#ffffff" fill-opacity="1"><g transform="translate(164.961368, 218.918272)"><g><path d="M 1.515625 -13.0625 L 3.921875 -13.0625 L 3.921875 0 L 1.515625 0 Z M 1.515625 -13.0625 "/></g></g></g><g fill="#ffffff" fill-opacity="1"><g transform="translate(174.712181, 218.918272)"><g><path d="M 10.8125 -13.0625 L 10.8125 0.265625 L 10.625 0.265625 L 4.375 -6.875 L 3.78125 -7.625 L 3.875 -5.8125 L 3.875 0 L 1.578125 0 L 1.578125 -13.296875 L 1.78125 -13.296875 L 7.953125 -6.09375 L 8.609375 -5.234375 L 8.515625 -7.03125 L 8.515625 -13.0625 Z M 10.8125 -13.0625 "/></g></g></g><g fill="#ffffff" fill-opacity="1"><g transform="translate(191.419045, 218.918272)"><g><path d="M 11.0625 -7.015625 C 11.132812 -6.234375 11.171875 -5.625 11.171875 -5.1875 C 11.171875 -3.53125 10.804688 -2.191406 10.078125 -1.171875 C 9.359375 -0.160156 8.054688 0.34375 6.171875 0.34375 C 5.117188 0.34375 4.175781 0.0664062 3.34375 -0.484375 C 2.519531 -1.046875 1.867188 -1.851562 1.390625 -2.90625 C 0.921875 -3.957031 0.6875 -5.207031 0.6875 -6.65625 C 0.6875 -7.9375 0.929688 -9.078125 1.421875 -10.078125 C 1.921875 -11.085938 2.609375 -11.875 3.484375 -12.4375 C 4.367188 -13.007812 5.367188 -13.296875 6.484375 -13.296875 C 7.242188 -13.296875 7.875 -13.234375 8.375 -13.109375 C 8.882812 -12.992188 9.273438 -12.851562 9.546875 -12.6875 C 9.828125 -12.53125 10.078125 -12.34375 10.296875 -12.125 L 9.265625 -10.046875 C 8.742188 -10.734375 7.832031 -11.078125 6.53125 -11.078125 C 5.90625 -11.078125 5.335938 -10.890625 4.828125 -10.515625 C 4.316406 -10.148438 3.914062 -9.632812 3.625 -8.96875 C 3.34375 -8.3125 3.203125 -7.5625 3.203125 -6.71875 C 3.203125 -5.6875 3.328125 -4.796875 3.578125 -4.046875 C 3.828125 -3.304688 4.175781 -2.738281 4.625 -2.34375 C 5.082031 -1.957031 5.609375 -1.765625 6.203125 -1.765625 C 7.148438 -1.765625 7.832031 -1.984375 8.25 -2.421875 C 8.664062 -2.867188 8.875 -3.539062 8.875 -4.4375 C 8.875 -4.539062 8.863281 -4.710938 8.84375 -4.953125 L 6.171875 -4.953125 L 6.171875 -7.015625 Z M 11.0625 -7.015625 "/></g></g></g><g fill="#ffffff" fill-opacity="1"><g transform="translate(207.525926, 218.918272)"><g/></g></g><g fill="#ffffff" fill-opacity="1"><g transform="translate(215.401791, 218.918272)"><g><path d="M 7.671875 -1.890625 L 3 -1.890625 L 2.3125 0 L -0.3125 0 L 5.21875 -13.296875 L 5.40625 -13.296875 L 10.953125 0 L 8.40625 0 Z M 6.96875 -3.71875 L 5.609375 -7.28125 L 5.28125 -8.328125 L 4.984375 -7.28125 L 3.671875 -3.71875 Z M 6.96875 -3.71875 "/></g></g></g><g fill="#ffffff" fill-opacity="1"><g transform="translate(230.346198, 218.918272)"><g><path d="M 11.0625 -7.015625 C 11.132812 -6.234375 11.171875 -5.625 11.171875 -5.1875 C 11.171875 -3.53125 10.804688 -2.191406 10.078125 -1.171875 C 9.359375 -0.160156 8.054688 0.34375 6.171875 0.34375 C 5.117188 0.34375 4.175781 0.0664062 3.34375 -0.484375 C 2.519531 -1.046875 1.867188 -1.851562 1.390625 -2.90625 C 0.921875 -3.957031 0.6875 -5.207031 0.6875 -6.65625 C 0.6875 -7.9375 0.929688 -9.078125 1.421875 -10.078125 C 1.921875 -11.085938 2.609375 -11.875 3.484375 -12.4375 C 4.367188 -13.007812 5.367188 -13.296875 6.484375 -13.296875 C 7.242188 -13.296875 7.875 -13.234375 8.375 -13.109375 C 8.882812 -12.992188 9.273438 -12.851562 9.546875 -12.6875 C 9.828125 -12.53125 10.078125 -12.34375 10.296875 -12.125 L 9.265625 -10.046875 C 8.742188 -10.734375 7.832031 -11.078125 6.53125 -11.078125 C 5.90625 -11.078125 5.335938 -10.890625 4.828125 -10.515625 C 4.316406 -10.148438 3.914062 -9.632812 3.625 -8.96875 C 3.34375 -8.3125 3.203125 -7.5625 3.203125 -6.71875 C 3.203125 -5.6875 3.328125 -4.796875 3.578125 -4.046875 C 3.828125 -3.304688 4.175781 -2.738281 4.625 -2.34375 C 5.082031 -1.957031 5.609375 -1.765625 6.203125 -1.765625 C 7.148438 -1.765625 7.832031 -1.984375 8.25 -2.421875 C 8.664062 -2.867188 8.875 -3.539062 8.875 -4.4375 C 8.875 -4.539062 8.863281 -4.710938 8.84375 -4.953125 L 6.171875 -4.953125 L 6.171875 -7.015625 Z M 11.0625 -7.015625 "/></g></g></g><g fill="#ffffff" fill-opacity="1"><g transform="translate(246.453078, 218.918272)"><g><path d="M 8.71875 -2.125 L 8.71875 0 L 1.515625 0 L 1.515625 -13.0625 L 8.34375 -13.0625 L 8.34375 -11.03125 L 3.859375 -11.03125 L 3.859375 -7.96875 L 7.421875 -7.96875 L 7.421875 -5.984375 L 3.859375 -5.984375 L 3.859375 -2.125 Z M 8.71875 -2.125 "/></g></g></g><g fill="#ffffff" fill-opacity="1"><g transform="translate(260.253777, 218.918272)"><g><path d="M 10.8125 -13.0625 L 10.8125 0.265625 L 10.625 0.265625 L 4.375 -6.875 L 3.78125 -7.625 L 3.875 -5.8125 L 3.875 0 L 1.578125 0 L 1.578125 -13.296875 L 1.78125 -13.296875 L 7.953125 -6.09375 L 8.609375 -5.234375 L 8.515625 -7.03125 L 8.515625 -13.0625 Z M 10.8125 -13.0625 "/></g></g></g><g fill="#ffffff" fill-opacity="1"><g transform="translate(276.960641, 218.918272)"><g><path d="M 6 0.21875 C 5.050781 0.21875 4.175781 -0.03125 3.375 -0.53125 C 2.570312 -1.039062 1.921875 -1.816406 1.421875 -2.859375 C 0.929688 -3.910156 0.6875 -5.195312 0.6875 -6.71875 C 0.6875 -8.09375 0.929688 -9.273438 1.421875 -10.265625 C 1.910156 -11.253906 2.570312 -12.003906 3.40625 -12.515625 C 4.238281 -13.035156 5.171875 -13.296875 6.203125 -13.296875 C 6.835938 -13.296875 7.375 -13.234375 7.8125 -13.109375 C 8.25 -12.984375 8.59375 -12.84375 8.84375 -12.6875 C 9.09375 -12.53125 9.332031 -12.34375 9.5625 -12.125 L 8.515625 -10.15625 C 8.296875 -10.394531 8.097656 -10.578125 7.921875 -10.703125 C 7.753906 -10.835938 7.539062 -10.941406 7.28125 -11.015625 C 7.03125 -11.097656 6.703125 -11.140625 6.296875 -11.140625 C 5.671875 -11.140625 5.132812 -10.957031 4.6875 -10.59375 C 4.238281 -10.226562 3.894531 -9.71875 3.65625 -9.0625 C 3.414062 -8.414062 3.296875 -7.675781 3.296875 -6.84375 C 3.296875 -5.789062 3.421875 -4.890625 3.671875 -4.140625 C 3.921875 -3.398438 4.253906 -2.84375 4.671875 -2.46875 C 5.097656 -2.09375 5.570312 -1.90625 6.09375 -1.90625 C 6.644531 -1.90625 7.132812 -1.984375 7.5625 -2.140625 C 8 -2.296875 8.328125 -2.492188 8.546875 -2.734375 L 9.578125 -0.875 C 9.203125 -0.5625 8.742188 -0.300781 8.203125 -0.09375 C 7.660156 0.113281 6.925781 0.21875 6 0.21875 Z M 6 0.21875 "/></g></g></g><g fill="#ffffff" fill-opacity="1"><g transform="translate(291.155069, 218.918272)"><g><path d="M 6.25 -5.109375 L 6.25 0 L 3.84375 0 L 3.84375 -5.28125 L -0.28125 -13.0625 L 2.359375 -13.0625 L 5.109375 -7.390625 L 7.75 -13.0625 L 10.375 -13.0625 Z M 6.25 -5.109375 "/></g></g></g></svg>